<svg xmlns="http://www.w3.org/2000/svg" xmlns:xlink="http://www.w3.org/1999/xlink" version="1.1" id="Layer_1" x="0px" y="0px" viewBox="0 0 566.9 566.9" xml:space="preserve" enable-background="new 0 0 566.9 566.9">
<style>
.s0{
	stop-color:#FF7BAC;
}
.s1{
	stop-color:#FF7BAC;
	stop-opacity:0;
}

</style>  <style type="text/css">
    
    	.Drop_x0020_Shadow{fill:none;}
    	.Outer_x0020_Glow_x0020_5_x0020_pt{fill:none;}
    	.Blue_x0020_Neon{fill:none;stroke:#8AACDA;stroke-width:7;stroke-linecap:round;stroke-linejoin:round;}
    	.Chrome_x0020_Highlight{fill:url(#SVGID_1_);stroke:#FFFFFF;stroke-width:0.3629;stroke-miterlimit:1;}
    	.Jive_GS{fill:#FFDD00;}
    	.Alyssa_GS{fill:#A6D0E4;}
    	.st0{fill:url(#SVGID_2_);}
    	.st1{fill:url(#SVGID_3_);}
    	.st2{fill:url(#SVGID_4_);}
    	.st3{fill:url(#SVGID_5_);}
    
  </style>
  <linearGradient id="SVGID_1_" gradientUnits="userSpaceOnUse" x1="0" y1="0" x2="6.123234e-17" y2="-1">
    <stop offset="0" stop-color="#656565"/>
    <stop offset="0.618" stop-color="#1B1B1B"/>
    <stop offset="0.6292" stop-color="#545454"/>
    <stop offset="0.9831" stop-color="#3E3E3E"/>
  </linearGradient>
  <g>
    <linearGradient id="SVGID_2_" gradientUnits="userSpaceOnUse" x1="61.7345" y1="191.7041" x2="304.1632" y2="191.7041">
      <stop offset="0" stop-color="#FF7BAC"/>
      <stop offset="1" class="s1"/>
    </linearGradient>
    <path class="st0" d="M143.6 76.9L143.6 76.9c0.4 0 0.8 0 1.1 0.1l103.5 17.6c2.4 0.4 4.4 2.1 5.2 4.3l40.3 108.8c0.8 2.1 0.5 4.5-0.9 6.3l-65.1 89.7c-1.3 1.7-3.3 2.8-5.5 2.8 -0.4 0-0.8 0-1.1-0.1l-103.5-17.6c-2.4-0.4-4.4-2.1-5.2-4.3L72.2 175.6c-0.8-2.1-0.5-4.5 0.9-6.3l65.1-89.7C139.4 77.9 141.5 76.9 143.6 76.9M143.6 66.9c-5.3 0-10.4 2.5-13.6 6.9l-65.1 89.7c-3.3 4.5-4.1 10.4-2.2 15.7L103 288c2.1 5.6 7 9.7 12.9 10.7l103.5 17.6c0.9 0.2 1.9 0.2 2.8 0.2 5.3 0 10.4-2.5 13.6-6.9L301 220c3.3-4.5 4.1-10.4 2.2-15.7L262.8 95.4c-2.1-5.6-7-9.7-12.9-10.7L146.5 67.1C145.5 66.9 144.6 66.9 143.6 66.9L143.6 66.9z"/>
    <linearGradient id="SVGID_3_" gradientUnits="userSpaceOnUse" x1="201.0121" y1="190.1765" x2="444.3956" y2="190.1765">
      <stop offset="0" stop-color="#FF7BAC"/>
      <stop offset="1" class="s1"/>
    </linearGradient>
    <path class="st1" d="M359.2 76c1.5 0 2.9 0.7 3.9 1.9l70.2 88.2c1.1 1.3 1.4 3.1 0.8 4.7L397 280.4c-0.6 1.7-2 2.9-3.8 3.3l-106.1 20.6c-0.3 0.1-0.6 0.1-0.9 0.1 -1.5 0-2.9-0.7-3.9-1.9l-70.2-88.2c-1.1-1.3-1.4-3.1-0.8-4.7L248.4 100c0.6-1.7 2-2.9 3.8-3.3l106.1-20.6C358.6 76 358.9 76 359.2 76M359.2 66c-0.9 0-1.9 0.1-2.9 0.3L250.3 86.9c-5.3 1-9.6 4.8-11.3 9.9l-37.2 109.7c-1.6 4.8-0.7 10.1 2.5 14.1l70.2 88.2c2.9 3.6 7.2 5.6 11.7 5.6 0.9 0 1.9-0.1 2.9-0.3l106.1-20.6c5.3-1 9.6-4.8 11.3-9.9l37.2-109.7c1.6-4.8 0.7-10.1-2.5-14.1l-70.2-88.2C368.1 68 363.7 66 359.2 66L359.2 66z"/>
    <linearGradient id="SVGID_4_" gradientUnits="userSpaceOnUse" x1="102.0823" y1="379.1673" x2="298.416" y2="379.1673">
      <stop offset="0" stop-color="#FF7BAC"/>
      <stop offset="1" class="s1"/>
    </linearGradient>
    <path class="st2" d="M118.4 259.9c0.9 0 1.8 0.2 2.7 0.6l163.7 76c2.7 1.3 3.4 3.7 3.6 4.7 0.2 1 0.3 3.5-1.9 5.6l-159 149.8c-1.2 1.2-2.7 1.7-4.2 1.7 -2.4 0-6.3-1.7-6.4-6.2l-4.7-225.8c0-2.2 0.9-3.7 1.8-4.5C115.1 260.6 116.7 259.9 118.4 259.9M118.4 249.9c-8.7 0-16.5 7.1-16.3 16.7l4.7 225.8c0.2 9.6 8.1 16 16.4 16 3.9 0 7.8-1.4 11.1-4.5l159-149.8c8.4-7.9 6.1-21.8-4.3-26.7l-163.7-76C123 250.4 120.7 249.9 118.4 249.9L118.4 249.9z"/>
    <linearGradient id="SVGID_5_" gradientUnits="userSpaceOnUse" x1="216.7171" y1="392.3395" x2="415.2009" y2="392.3395">
      <stop offset="0" stop-color="#FF7BAC"/>
      <stop offset="1" class="s1"/>
    </linearGradient>
    <path class="st3" d="M398.9 268.8c1.7 0 3.3 0.7 4.5 2 0.8 0.9 1.8 2.3 1.8 4.5l-5.8 234.5c-0.1 4.5-4 6.2-6.4 6.2 -1.6 0-3.1-0.6-4.4-1.9l-160-160.7c-2.1-2.1-1.9-4.6-1.7-5.6 0.2-1 0.9-3.4 3.6-4.6l165.9-73.8C397.2 269 398 268.8 398.9 268.8M398.9 258.8c-2.2 0-4.4 0.5-6.6 1.4L226.4 334c-10.4 4.6-13 18.3-4.9 26.4l160 160.7c3.3 3.3 7.4 4.8 11.4 4.8 8.2 0 16.2-6.3 16.4-15.9l5.8-234.5C415.4 265.9 407.6 258.8 398.9 258.8L398.9 258.8z"/>
  </g>
</svg>
